<?xml version="1.0" standalone="no"?>
<!DOCTYPE svg PUBLIC "-//W3C//DTD SVG 20010904//EN"
 "http://www.w3.org/TR/2001/REC-SVG-20010904/DTD/svg10.dtd">
<svg version="1.0" xmlns="http://www.w3.org/2000/svg"
 width="1300.000000pt" height="1300.000000pt" viewBox="0 0 1300.000000 1300.000000"
 preserveAspectRatio="xMidYMid meet">
<metadata>
Created by potrace 1.14, written by Peter Selinger 2001-2017
</metadata>
<g transform="translate(0.000000,1300.000000) scale(0.100000,-0.100000)"
fill="#000000" stroke="none">
<path d="M0 6500 l0 -6500 6500 0 6500 0 0 6500 0 6500 -6500 0 -6500 0 0
-6500z m12900 0 l0 -6400 -6400 0 -6400 0 0 6400 0 6400 6400 0 6400 0 0
-6400z"/>
<path d="M6305 10490 l-190 -190 -2707 0 -2708 0 0 -80 0 -80 2707 0 2708 0
192 -192 193 -193 193 193 192 192 2708 0 2707 0 0 80 0 80 -2708 0 -2707 0
-190 190 c-104 105 -192 190 -195 190 -3 0 -91 -85 -195 -190z"/>
<path d="M3506 8742 c-3 -6 -1562 -4788 -1590 -4880 l-7 -22 442 2 443 3 190
662 191 663 825 -3 825 -2 190 -660 191 -660 457 -3 c251 -1 457 1 456 5 0 5
-359 1108 -797 2453 l-798 2445 -506 3 c-279 1 -509 -1 -512 -6z m608 -1059
c113 -444 197 -749 296 -1078 38 -126 101 -342 141 -480 39 -137 74 -256 76
-262 4 -10 -124 -13 -621 -13 -344 0 -626 3 -626 6 0 7 131 459 225 779 85
285 271 981 336 1253 33 137 47 182 59 182 11 0 38 -91 114 -387z"/>
<path d="M6730 6295 l0 -2455 435 0 435 0 0 1085 0 1085 990 0 990 0 0 -1085
0 -1085 440 0 440 0 -2 2453 -3 2452 -435 0 -435 0 -3 -987 -2 -988 -990 0
-990 0 -2 988 -3 987 -432 3 -433 2 0 -2455z"/>
<path d="M6305 3050 l-190 -190 -2707 0 -2708 0 0 -80 0 -80 2707 0 2708 0
192 -192 193 -193 193 193 192 192 2708 0 2707 0 0 80 0 80 -2708 0 -2707 0
-190 190 c-104 105 -192 190 -195 190 -3 0 -91 -85 -195 -190z"/>
</g>
</svg>
