<?xml version="1.0" standalone="no"?>
<!DOCTYPE svg PUBLIC "-//W3C//DTD SVG 20010904//EN"
 "http://www.w3.org/TR/2001/REC-SVG-20010904/DTD/svg10.dtd">
<svg version="1.0" xmlns="http://www.w3.org/2000/svg"
 width="219.000000pt" height="219.000000pt" viewBox="0 0 219.000000 219.000000"
 preserveAspectRatio="xMidYMid meet">
<metadata>
Created by potrace 1.14, written by Peter Selinger 2001-2017
</metadata>
<g transform="translate(0.000000,219.000000) scale(0.100000,-0.100000)"
fill="#000000" stroke="none">
<path d="M610 1551 c0 -4 -12 -6 -27 -5 -28 1 -52 -19 -53 -44 0 -8 -6 -28
-14 -45 -13 -28 -45 -117 -108 -297 -10 -30 -23 -64 -29 -75 -5 -11 -11 -29
-13 -40 -2 -11 -10 -33 -17 -50 -7 -16 -13 -32 -13 -35 -8 -36 -73 -198 -83
-207 -8 -6 -32 -14 -53 -18 -41 -7 -53 -26 -39 -62 7 -20 14 -21 166 -21 l160
-1 -1 32 c-1 30 -25 60 -43 55 -17 -4 -53 14 -53 27 0 15 19 69 47 138 l16 37
146 0 147 0 31 -94 31 -95 -48 -11 c-37 -9 -49 -17 -52 -34 -10 -53 -7 -54
186 -52 176 1 179 1 187 24 11 28 -20 62 -56 62 -14 0 -25 5 -25 11 0 5 -4 8
-9 4 -5 -3 -13 5 -16 17 -6 22 -60 176 -72 208 -3 8 -7 22 -9 30 -2 8 -7 23
-13 35 -10 21 -22 54 -27 70 -3 12 -87 247 -116 325 -11 30 -22 65 -25 78 -3
12 -15 24 -27 27 -50 10 -76 12 -76 6z m4 -197 c3 -9 4 -20 0 -25 -3 -5 -1 -9
4 -9 5 0 13 -15 17 -32 9 -39 4 -22 44 -146 18 -57 30 -106 27 -110 -7 -7 -91
-6 -103 1 -4 2 -17 1 -28 -3 -11 -4 -30 -4 -42 1 -15 6 -23 5 -23 -2 0 -8 -4
-8 -14 0 -13 11 -12 20 6 69 11 31 21 62 22 67 1 6 4 15 7 20 5 8 18 50 23 75
6 27 42 110 47 110 4 0 10 -7 13 -16z"/>
<path d="M1116 1531 c-2 -5 -1 -35 3 -60 0 -5 16 -12 34 -16 17 -4 35 -9 40
-10 4 -1 11 -3 16 -4 6 0 9 -144 9 -345 l0 -344 -51 -14 c-49 -14 -51 -16 -52
-50 l-1 -35 178 -1 c183 -1 190 0 193 41 2 22 -31 47 -61 47 -12 0 -27 6 -33
14 -13 15 -19 125 -8 143 4 6 4 19 0 29 -6 15 -8 73 -3 92 1 4 2 15 1 24 -2
15 14 17 158 20 89 2 161 -1 161 -6 0 -5 6 -4 13 2 6 5 19 7 28 3 13 -5 15
-28 15 -153 -1 -84 -5 -151 -11 -157 -5 -5 -21 -12 -35 -14 -46 -7 -59 -18
-58 -48 1 -17 7 -30 17 -33 9 -2 91 -4 184 -4 156 -1 167 1 167 18 0 10 3 25
6 34 4 11 -7 19 -45 30 -69 20 -73 23 -61 47 6 10 7 19 3 19 -9 0 -9 87 0 96
3 3 4 11 1 17 -10 27 -11 77 -1 77 6 0 6 5 0 13 -5 6 -7 37 -6 67 4 74 4 69 0
118 -2 23 1 42 6 42 6 0 6 5 0 13 -7 10 -8 38 -3 132 1 6 -1 22 -3 36 -4 25 0
28 52 42 52 15 56 18 56 46 0 17 -4 32 -10 33 -28 4 -355 3 -356 -1 -11 -46 3
-78 34 -79 4 0 20 -3 36 -7 l28 -6 -1 -143 0 -143 -189 0 -188 1 1 45 c0 25 0
64 -1 86 0 22 0 45 1 50 1 6 1 28 1 50 -2 51 7 64 47 67 18 1 38 8 44 16 16
18 17 51 4 60 -13 8 -356 11 -360 3z"/>
</g>
</svg>
